<svg width="1000" height="497" viewBox="0 0 1000 497" fill="none" xmlns="http://www.w3.org/2000/svg">
<g clip-path="url(#clip0)">
<path d="M415.303 264.449L428.963 246.99L461.153 212.073H496.491L450.879 261.896L499.283 326.981H463.113L429.973 280.364L416.491 291.172V326.922H385.132V167H416.491V238.32L414.828 264.449H415.303Z" fill="#263A8B"/>
<path d="M578.392 326.922L572.334 311.304H571.502C566.217 317.955 560.812 322.587 555.229 325.14C549.646 327.694 542.341 329 533.373 329C522.326 329 513.655 325.853 507.3 319.558C500.945 313.263 497.798 304.296 497.798 292.657C497.798 280.483 502.074 271.457 510.567 265.696C519.119 259.936 531.948 256.729 549.171 256.076L569.127 255.482V250.435C569.127 238.795 563.188 232.976 551.25 232.976C542.044 232.976 531.294 235.767 518.882 241.29L508.488 220.089C521.732 213.141 536.402 209.697 552.497 209.697C567.939 209.697 579.758 213.082 587.954 219.793C596.15 226.503 600.307 236.717 600.307 250.435V326.981H578.392V326.922ZM569.127 273.654L557.011 274.07C547.924 274.367 541.094 275.97 536.64 278.999C532.185 282.027 529.988 286.6 529.988 292.776C529.988 301.624 535.036 306.018 545.192 306.018C552.438 306.018 558.258 303.94 562.594 299.724C566.929 295.567 569.127 289.985 569.127 283.096V273.654Z" fill="#263A8B"/>
<path d="M697.353 292.776C697.353 304.534 693.255 313.56 685.059 319.677C676.863 325.853 664.628 328.941 648.295 328.941C639.921 328.941 632.794 328.347 626.915 327.219C621.035 326.09 615.511 324.427 610.344 322.23V296.339C616.165 299.07 622.757 301.386 630.003 303.227C637.308 305.068 643.722 306.018 649.305 306.018C660.708 306.018 666.35 302.752 666.35 296.161C666.35 293.666 665.578 291.707 664.094 290.163C662.609 288.619 659.996 286.897 656.254 284.937C652.572 282.977 647.642 280.721 641.465 278.108C632.616 274.426 626.142 270.982 621.985 267.834C617.828 264.687 614.799 261.065 612.958 256.967C611.057 252.87 610.107 247.881 610.107 241.883C610.107 231.669 614.086 223.771 621.985 218.189C629.884 212.607 641.109 209.816 655.66 209.816C669.498 209.816 682.98 212.845 696.046 218.842L686.603 241.468C680.842 238.974 675.437 236.955 670.449 235.411C665.46 233.807 660.352 233.035 655.125 233.035C645.86 233.035 641.228 235.529 641.228 240.518C641.228 243.309 642.713 245.743 645.682 247.822C648.652 249.9 655.185 252.929 665.281 256.967C674.25 260.589 680.842 263.974 684.999 267.122C689.157 270.269 692.245 273.892 694.264 277.989C696.284 282.087 697.353 287.134 697.353 292.776Z" fill="#263A8B"/>
<path d="M814.473 326.922H783.114V259.817C783.114 251.504 781.629 245.328 778.719 241.171C775.749 237.014 771.058 234.936 764.643 234.936C755.853 234.936 749.558 237.845 745.638 243.724C741.718 249.603 739.758 259.283 739.758 272.882V326.922H708.4V212.013H732.334L736.551 226.681H738.273C741.778 221.158 746.588 216.942 752.706 214.092C758.823 211.241 765.831 209.816 773.611 209.816C786.974 209.816 797.13 213.438 804.02 220.683C810.969 227.928 814.413 238.32 814.413 251.979V326.922H814.473Z" fill="#263A8B"/>
<path d="M903.085 326.922L897.027 311.304H896.195C890.909 317.955 885.505 322.587 879.922 325.14C874.339 327.694 867.034 329 858.066 329C847.019 329 838.348 325.853 831.993 319.558C825.638 313.263 822.491 304.296 822.491 292.657C822.491 280.483 826.767 271.457 835.26 265.696C843.812 259.936 856.641 256.729 873.864 256.076L893.82 255.482V250.435C893.82 238.795 887.88 232.976 875.943 232.976C866.737 232.976 855.987 235.767 843.574 241.29L833.181 220.089C846.425 213.141 861.095 209.697 877.19 209.697C892.632 209.697 904.451 213.082 912.647 219.793C920.843 226.503 925 236.717 925 250.435V326.981H903.085V326.922ZM893.82 273.654L881.704 274.07C872.617 274.367 865.787 275.97 861.333 278.999C856.878 282.027 854.621 286.6 854.621 292.776C854.621 301.624 859.669 306.018 869.825 306.018C877.071 306.018 882.892 303.94 887.227 299.724C891.563 295.567 893.76 289.985 893.76 283.096V273.654H893.82Z" fill="#263A8B"/>
<path d="M146.022 285.412C141.093 273.832 138.42 261.065 138.42 247.703C138.42 244.318 138.599 240.993 138.955 237.727H121.019C111.754 237.727 103.142 240.577 95.8961 245.447C88.7098 250.316 82.9488 257.264 79.5635 265.34C77.3066 270.744 76 276.623 76 282.799C76 292.063 78.8508 300.674 83.7209 307.919C88.591 315.104 95.4804 320.864 103.558 324.309C108.962 326.565 114.842 327.872 121.019 327.872H180.707C165.443 317.361 153.328 302.693 146.022 285.412Z" fill="#00A84F"/>
<path d="M301.984 202.749C293.313 189.922 281.019 179.708 266.587 173.592C256.966 169.494 246.394 167.297 235.288 167.297C218.599 167.297 203.157 172.345 190.269 181.015C177.44 189.685 167.225 201.977 161.108 216.408C160.395 218.07 159.801 219.733 159.207 221.396C158.257 224.068 157.485 226.8 156.832 229.591C156.238 232.263 155.763 234.995 155.406 237.786C154.991 241.052 154.812 244.378 154.812 247.762C154.812 264.449 159.861 279.889 168.532 292.776C177.203 305.603 189.497 315.817 203.929 321.933C211.115 324.962 218.777 326.981 226.854 327.812H243.543C247.166 327.456 250.729 326.803 254.174 325.971C246.75 319.202 240.811 310.888 236.832 301.505C233.268 293.132 231.368 283.927 231.368 274.367C231.368 261.005 235.169 248.416 241.702 237.786C242.237 236.955 242.712 236.123 243.246 235.351C244.612 233.392 246.038 231.432 247.582 229.591C250.017 226.622 252.749 223.89 255.659 221.396C261.064 216.705 267.24 212.845 273.952 210.054C282.326 206.49 291.531 204.59 301.093 204.59C301.806 204.59 302.459 204.59 303.172 204.65C302.816 203.996 302.4 203.343 301.984 202.749Z" fill="#EF4129"/>
<path d="M301.509 327.575C330.833 327.575 354.605 303.806 354.605 274.485C354.605 245.165 330.833 221.396 301.509 221.396C272.185 221.396 248.413 245.165 248.413 274.485C248.413 303.806 272.185 327.575 301.509 327.575Z" fill="#FCD900"/>
</g>
<defs>
<clipPath id="clip0">
<rect x="76" y="167" width="849" height="162" fill="white"/>
</clipPath>
</defs>
</svg>
